<svg width="52" height="50" viewBox="0 0 52 50" fill="none" xmlns="http://www.w3.org/2000/svg">
<path d="M26.0012 48.5549C38.972 48.5549 49.4868 38.04 49.4868 25.0693C49.4868 12.0985 38.972 1.58368 26.0012 1.58368C13.0305 1.58368 2.51562 12.0985 2.51562 25.0693C2.51562 38.04 13.0305 48.5549 26.0012 48.5549Z" stroke="white" stroke-width="1.69968"/>
<path d="M14.6308 5.00756C14.9566 4.69956 15.6511 4.49991 16.9665 4.752C18.2422 4.99646 19.8749 5.62873 21.7666 6.63366C25.539 8.63767 30.1638 12.0278 34.724 16.3378C39.2842 20.6479 42.8711 25.0189 44.9914 28.5844C46.0547 30.3723 46.7236 31.9155 46.9823 33.1212C47.249 34.3645 47.0377 35.0208 46.7119 35.3288C46.386 35.6368 45.6916 35.8365 44.3761 35.5844C43.1004 35.3399 41.4677 34.7076 39.576 33.7027C35.8036 31.6987 31.1789 28.3086 26.6187 23.9985C22.0585 19.6885 18.4716 15.3174 16.3512 11.752C15.288 9.96404 14.619 8.42088 14.3604 7.2152C14.0937 5.97189 14.3049 5.31555 14.6308 5.00756Z" stroke="white" stroke-width="1.69968"/>
<path d="M38.2484 4.99762C38.5666 5.29837 38.7758 5.95693 38.4863 7.22828C38.2065 8.45696 37.5054 10.0322 36.402 11.859C34.2015 15.5019 30.5034 19.9784 25.8207 24.4042C21.138 28.8301 16.4016 32.3253 12.5473 34.4051C10.6145 35.448 8.94787 36.1106 7.64788 36.3751C6.30275 36.6487 5.60597 36.4509 5.28776 36.1502C4.96955 35.8494 4.7603 35.1909 5.0498 33.9195C5.32958 32.6908 6.03071 31.1156 7.13416 29.2888C9.33465 25.6459 13.0326 21.1694 17.7154 16.7435C22.3981 12.3177 27.1344 8.82251 30.9888 6.74274C32.9216 5.69982 34.5882 5.03715 35.8882 4.77271C37.2334 4.4991 37.9302 4.69687 38.2484 4.99762Z" stroke="white" stroke-width="1.69968"/>
</svg>
